<svg width="1329" height="1514" viewBox="0 0 1329 1514" fill="none" xmlns="http://www.w3.org/2000/svg">
<g clip-path="url(#clip0_2_79)">
<path d="M851.46 1209.08L864.231 1244.72C853.85 1242.66 844.196 1253.69 843.979 1267.86C843.762 1282.02 853.021 1296.76 863.403 1298.78C861.419 1309.78 852.857 1314.62 845.425 1319.07C837.993 1323.52 829.983 1330.89 830.536 1342.61C830.98 1352.02 837.234 1360.33 843.875 1363.67C850.517 1367.01 857.485 1366.49 864.211 1365.93C854.019 1379.2 853.025 1404.14 861.976 1422.03C870.928 1439.92 888.804 1448.72 902.189 1441.84C892.732 1456.48 894.787 1483.29 906.524 1498.39C918.356 1513.62 935.504 1515.1 950.495 1513.49C988.67 1509.48 1025.04 1491.54 1055.07 1461.93C1066.53 1450.6 1077.23 1437.27 1083.77 1419.89C1090.31 1402.5 1092.23 1380.5 1086.14 1360.72C1087.79 1385.49 1107.72 1405.07 1125.65 1406.16C1143.58 1407.26 1159.24 1394.69 1172.54 1380.36C1190.24 1361.3 1206.62 1334.58 1204.19 1301.62C1202.99 1285.3 1197.26 1269.61 1191.64 1254.41L1180.75 1224.94C1176.35 1213.04 1171.85 1200.94 1165.24 1190.96C1158.62 1180.97 1149.43 1173.24 1140.24 1173.32C1142.34 1161.37 1144.45 1148.98 1142.69 1136.28C1140.93 1123.59 1134.19 1110.44 1125.01 1107.47C1113.34 1103.69 1103.45 1117.09 1091.71 1115.83C1080.41 1114.61 1071.07 1100.5 1060.1 1094.91C1055.59 1092.48 1050.6 1091.74 1045.75 1092.79C1040.9 1093.83 1036.4 1096.61 1032.8 1100.79C1025.85 1109.24 1022.95 1123.51 1025.45 1137.01C1027.63 1148.84 1033.45 1159.27 1036.98 1170.68C1040.51 1182.09 1041.06 1196.76 1034.28 1202.99C1026.1 1210.51 1013.64 1200.28 1007.25 1187.9C1000.85 1175.52 997.183 1160.54 989.098 1150.13C979.556 1137.84 964.619 1134.96 954.794 1143.52C944.97 1152.07 941.213 1171.22 946.166 1187.5C950.215 1200.81 959.492 1214.28 956.275 1226.82C952.874 1240.06 937.995 1238.39 929.019 1229.02C920.044 1219.66 914.084 1205.56 905.218 1195.98C896.214 1186.26 884.456 1182 874.133 1184.72C868.897 1186.23 864.051 1189.36 860.043 1193.82C856.034 1198.27 852.993 1203.92 851.199 1210.22" fill="#E6E6E6"/>
<path d="M1058.22 1108.96L1031.73 1124.27C1027.74 1126.72 1023.23 1127.48 1018.86 1126.43C1015.02 1125.3 1012.42 1122.37 1011.73 1118.4L1005.57 1082.57C1004.4 1075.81 1008.9 1067.81 1016.27 1063.55L1030.9 1055.09C1038.26 1050.84 1046.08 1051.72 1049.48 1057.18L1067.51 1086.16C1069.51 1089.37 1069.63 1093.73 1067.84 1098.12C1065.67 1102.94 1062.3 1106.75 1058.22 1108.96Z" fill="#3F3D56"/>
<path d="M236.575 446.687C261.487 361.849 300.362 284.42 350.713 219.357C393.431 164.178 459.914 166.471 459.914 166.471L460.294 165.884C476.295 141.332 497.767 123.207 522.016 113.781C546.264 104.356 572.21 104.05 596.597 112.903C602.936 115.166 607.812 116.17 610.131 115.161C652.408 96.7505 650.422 55.1953 686.897 21.7187C750.764 -36.8969 962.605 30.2461 992.476 138.106C1016.69 225.524 1124.76 267.894 1165.13 334.762C1171.44 345.217 1177.64 355.794 1183.71 366.492C1186.56 371.462 1189.38 376.469 1192.16 381.514C1220.77 433.059 1246.43 487.039 1268.96 543.057C1283.73 579.655 1296.57 617.414 1307.4 656.092C1349.51 809.253 1335.11 923.366 1219.01 895.174C1205.26 891.828 1191.85 888.834 1178.77 886.193C1159.82 882.346 1141.54 879.185 1123.91 876.709C1100.18 873.351 1077.6 871.15 1056.18 870.108C1048.97 869.747 1041.9 869.506 1034.96 869.383C932.359 867.613 856.251 891.641 798.27 928.941C788.442 935.248 779.128 941.92 770.328 948.958C756.888 959.648 744.055 971.477 731.92 984.36C715.127 1002.29 699.641 1022.03 685.644 1043.36L684.875 1044.53C617.059 1147.75 594.741 1262.01 547.567 1282.13C345.915 1368.15 218.378 1056.33 205.299 751.312C204.639 735.942 204.274 720.615 204.204 705.333C204.164 698.502 204.191 691.689 204.285 684.894C204.492 667.168 205.12 649.556 206.172 632.156C206.565 625.504 207.021 618.887 207.539 612.305C208.11 605.207 208.732 598.152 209.45 591.14C214.58 539.746 223.554 490.848 236.575 446.687Z" fill="#6C63FF"/>
<path d="M861.598 614.508C845.494 623.837 845.228 665.624 850.278 679.164L859.429 703.672L917.762 669.949L908.611 645.441C903.551 631.907 877.714 605.21 861.598 614.508Z" fill="#3F3D56"/>
<path d="M704.841 966.371C703.815 966.371 702.804 966.063 701.893 965.473C700.983 964.883 700.201 964.028 699.612 962.982C699.024 961.935 698.647 960.727 698.514 959.461C698.381 958.195 698.496 956.907 698.848 955.707C699.133 954.727 699.572 953.827 700.139 953.059C700.706 952.292 701.39 951.672 702.151 951.235L1003.4 777.081C1004.16 776.641 1004.98 776.393 1005.82 776.348C1006.65 776.304 1007.49 776.466 1008.28 776.823C1009.06 777.181 1009.78 777.728 1010.4 778.433C1011.02 779.138 1011.52 779.987 1011.87 780.932C1012.58 782.841 1012.65 785.023 1012.07 786.999C1011.49 788.975 1010.31 790.583 1008.77 791.472L707.525 965.627C706.685 966.116 705.769 966.37 704.841 966.371Z" fill="#3F3D56"/>
<path d="M940.485 685.579L854.375 735.36L989.453 1097.11L1075.56 1047.33L940.485 685.579Z" fill="#E6E6E6"/>
<path d="M617.233 230.19C601.128 239.52 600.863 281.307 605.913 294.847L615.064 319.355L673.397 285.632L664.246 261.124C659.186 247.59 633.349 220.893 617.233 230.19Z" fill="#3F3D56"/>
<path d="M978.068 1150.54L951.571 1165.86C947.587 1168.31 943.07 1169.07 938.708 1168.02C934.861 1166.89 932.262 1163.96 931.578 1159.99L925.413 1124.15C924.249 1117.39 928.748 1109.4 936.11 1105.14L950.744 1096.68C958.106 1092.42 965.92 1093.3 969.321 1098.77L987.353 1127.74C989.353 1130.96 989.474 1135.31 987.689 1139.7C985.519 1144.53 982.14 1148.33 978.068 1150.54Z" fill="#3F3D56"/>
<path d="M896.6 1200.84L870.102 1216.16C866.119 1218.6 861.601 1219.36 857.24 1218.31C853.393 1217.18 850.793 1214.25 850.11 1210.28L843.944 1174.45C842.78 1167.69 847.279 1159.69 854.642 1155.43L869.275 1146.97C876.638 1142.72 884.452 1143.6 887.853 1149.06L905.885 1178.04C907.885 1181.25 908.006 1185.61 906.22 1190C904.051 1194.82 900.672 1198.63 896.6 1200.84Z" fill="#3F3D56"/>
<path d="M719.097 362.797L632.986 412.578L906.031 1143.82L992.142 1094.04L719.097 362.797Z" fill="#E6E6E6"/>
<path d="M808.445 739.752L798.783 713.297L804.345 710.104L813.978 736.476L953.466 1121.31L947.909 1124.52" fill="#3F3D56"/>
<path d="M917.426 717.762L907.763 691.307L913.326 688.115L922.959 714.486L1062.45 1099.32L1056.89 1102.53" fill="#3F3D56"/>
<path d="M759.741 421.317L643.065 488.769C635.637 474.389 613.244 400.7 618.272 378.836L614.498 357.987L695.06 311.413L705.843 327.919C721.85 334.03 753.012 403.244 759.741 421.317Z" fill="#E6E6E6"/>
<path d="M698.426 312.305L615.291 360.367C612.222 362.141 608.954 361.489 607.992 358.91C607.854 358.538 607.768 358.14 607.738 357.732L603.435 300.618C603.251 298.172 604.933 295.401 607.502 293.915L662.635 262.042C665.204 260.557 667.991 260.745 669.374 262.498L701.679 303.424C703.332 305.517 702.434 309.1 699.675 311.427C699.279 311.76 698.861 312.054 698.426 312.305Z" fill="#E6E6E6"/>
<path d="M763.633 759.774C762.733 759.777 761.836 759.646 760.961 759.382C759.728 759.064 758.57 758.399 757.575 757.438C756.581 756.478 755.776 755.246 755.223 753.839L704.396 617.718C702.292 612.082 705.116 604.876 710.691 601.653L785.116 558.627C790.691 555.402 796.938 557.367 799.042 563.001L849.87 699.123C850.377 700.557 850.615 702.116 850.564 703.681C850.512 705.247 850.174 706.777 849.574 708.155C848.269 711.274 846.154 713.752 843.574 715.187L769.15 758.212C767.424 759.225 765.541 759.758 763.633 759.774Z" fill="#3F3D56"/>
<path d="M773.811 780.379L687.7 830.161L822.778 1191.91L908.889 1142.13L773.811 780.379Z" fill="#E6E6E6"/>
<path d="M667.724 318.272L642.471 332.871C637.598 335.688 631.024 330.994 627.818 322.408C624.612 313.822 625.969 304.543 630.842 301.726L656.094 287.127C660.967 284.31 667.541 289.004 670.747 297.59C673.953 306.176 672.597 315.455 667.724 318.272Z" fill="#3F3D56"/>
<path d="M696.604 708.336C680.499 717.665 680.234 759.453 685.284 772.993L694.435 797.501L752.768 763.778L743.617 739.27C738.557 725.736 712.72 699.038 696.604 708.336Z" fill="#3F3D56"/>
<path d="M429.09 624.924C423.402 629.64 417.581 618.417 423.378 613.911C429.065 609.196 434.887 620.419 429.09 624.924Z" fill="#E6E6E6"/>
<path d="M1021.12 463.667C1015.43 468.382 1009.61 457.159 1015.41 452.653C1021.09 447.938 1026.92 459.161 1021.12 463.667Z" fill="#E6E6E6"/>
<path d="M617.597 591.94C611.909 596.655 606.088 585.432 611.885 580.926C617.572 576.211 623.393 587.434 617.597 591.94Z" fill="#E6E6E6"/>
<path d="M429.09 1031.73C423.402 1036.45 417.581 1025.23 423.378 1020.72C429.065 1016 434.887 1027.23 429.09 1031.73Z" fill="#E6E6E6"/>
<path d="M719.214 113.665C713.526 118.38 707.705 107.157 713.502 102.652C719.189 97.9365 725.01 109.159 719.214 113.665Z" fill="#E6E6E6"/>
<path d="M439.399 329.897C433.711 334.612 427.89 323.389 433.687 318.883C439.374 314.168 445.195 325.391 439.399 329.897Z" fill="#E6E6E6"/>
<path d="M841.858 267.907L838.24 266.92L839.032 262.415L836.62 261.757L835.826 266.262L832.207 265.276L831.679 268.277L835.297 269.265L834.505 273.767L836.917 274.425L837.711 269.921L841.329 270.909L841.858 267.907Z" fill="#E6E6E6"/>
<path d="M252.632 643.157L249.013 642.169L249.805 637.667L247.393 637.009L246.599 641.511L242.979 640.526L242.451 643.527L246.071 644.515L245.278 649.019L247.691 649.675L248.484 645.173L252.103 646.159L252.632 643.157Z" fill="#E6E6E6"/>
<path d="M994.711 834.574C991.699 836.309 988.258 836.488 985.141 835.07C982.023 833.652 979.486 830.754 978.084 827.011L963.191 787.126C961.797 783.381 961.655 779.1 962.796 775.224C963.936 771.348 966.267 768.194 969.276 766.455C972.284 764.716 975.724 764.534 978.84 765.948C981.957 767.363 984.495 770.259 985.896 774L1000.79 813.885C1002.18 817.632 1002.33 821.915 1001.19 825.793C1000.05 829.672 997.719 832.829 994.711 834.574Z" fill="#3F3D56"/>
<path d="M741.405 981.171C738.393 982.907 734.952 983.086 731.835 981.668C728.718 980.25 726.18 977.352 724.778 973.609L709.885 933.724C708.491 929.979 708.349 925.698 709.49 921.822C710.631 917.946 712.961 914.792 715.97 913.053C718.978 911.314 722.418 911.131 725.535 912.546C728.651 913.961 731.189 916.857 732.59 920.598L747.483 960.483C748.878 964.23 749.021 968.512 747.882 972.391C746.742 976.269 744.413 979.427 741.405 981.171Z" fill="#3F3D56"/>
<path d="M971.769 747.431L871.91 805.16C865.553 792.853 846.387 729.786 850.691 711.074L852.803 690.142L912.427 653.743L925.64 667.496C944.254 659.665 971.618 717.06 971.769 747.431Z" fill="#E6E6E6"/>
<path d="M925.408 743.428L900.155 758.027C895.282 760.844 887.868 753.899 883.629 742.548C879.391 731.196 879.907 719.666 884.78 716.849L910.032 702.25C914.905 699.433 922.32 706.378 926.558 717.73C930.797 729.081 930.281 740.611 925.408 743.428Z" fill="#3F3D56"/>
<path d="M711.246 818.548L701.584 792.093L707.146 788.901L716.779 815.272L856.267 1200.1L850.711 1203.31" fill="#3F3D56"/>
<path d="M806.775 841.26L706.916 898.989C692.185 889.524 669.67 827.594 685.697 804.903L687.809 783.97L747.433 747.572L760.646 761.324C774.345 766.554 801.015 825.792 806.775 841.26Z" fill="#E6E6E6"/>
<path d="M758.359 831.753L733.106 846.352C728.233 849.169 721.28 843.458 717.608 833.624C713.935 823.79 714.913 813.495 719.786 810.678L745.038 796.079C749.911 793.262 756.865 798.972 760.537 808.806C764.209 818.641 763.232 828.936 758.359 831.753Z" fill="#3F3D56"/>
<path d="M252.263 564.117C336.038 564.117 403.952 479.613 403.952 375.372C403.952 271.132 336.038 186.628 252.263 186.628C168.487 186.628 100.573 271.132 100.573 375.372C100.573 479.613 168.487 564.117 252.263 564.117Z" fill="#FF6584"/>
<path opacity="0.3" d="M874.208 571.958L966.39 236.966L865.169 567.948C864.668 568.734 864.325 569.656 864.169 570.64C864.012 571.623 864.046 572.639 864.268 573.603C864.49 574.567 864.893 575.451 865.444 576.182C865.996 576.913 866.679 577.47 867.438 577.807C868.197 578.143 869.01 578.25 869.808 578.118C870.607 577.986 871.369 577.619 872.031 577.047C872.693 576.475 873.236 575.715 873.614 574.83C873.993 573.945 874.197 572.961 874.208 571.958Z" fill="#F0F0F0"/>
<path d="M1109.18 372.281C1091.14 379.743 1071.13 387.074 1049.17 394.272C935.557 431.492 783.272 460.524 620.367 476.024C457.463 491.523 303.4 491.635 186.561 476.343C129.645 468.893 84.6276 458.177 52.7601 444.493C19.0211 430.007 1.29296 412.549 0.0672535 392.609C-2.31963 353.761 59.2887 319.569 111.392 297.727L112.803 302.936C41.2514 332.932 2.77925 364.629 4.47316 392.19C6.62964 427.293 73.1667 455.972 187.023 470.876C303.606 486.135 457.384 486.018 620.031 470.543C782.677 455.067 934.683 426.092 1048.05 388.956C1158.75 352.69 1221.02 311.755 1218.86 276.652C1217.07 247.507 1170.9 222.575 1088.85 206.445L1089.54 201.016C1149.16 212.736 1220.75 235.298 1223.26 276.233C1224.49 296.173 1209.1 316.78 1177.52 337.481C1159.52 349.281 1136.65 360.922 1109.18 372.281Z" fill="#3F3D56"/>
<path d="M1153.76 707.038C1162.46 707.038 1169.52 698.258 1169.52 687.426C1169.52 676.595 1162.46 667.815 1153.76 667.815C1145.05 667.815 1138 676.595 1138 687.426C1138 698.258 1145.05 707.038 1153.76 707.038Z" fill="#FF6584"/>
<path d="M1253.9 1238.45C1262.61 1238.45 1269.66 1229.67 1269.66 1218.84C1269.66 1208.01 1262.61 1199.23 1253.9 1199.23C1245.2 1199.23 1238.14 1208.01 1238.14 1218.84C1238.14 1229.67 1245.2 1238.45 1253.9 1238.45Z" fill="#F2F2F2"/>
<path d="M716.363 1357.87C733.335 1357.87 747.093 1340.75 747.093 1319.63C747.093 1298.51 733.335 1281.39 716.363 1281.39C699.391 1281.39 685.633 1298.51 685.633 1319.63C685.633 1340.75 699.391 1357.87 716.363 1357.87Z" fill="#F2F2F2"/>
<path d="M482.202 851.803C490.907 851.803 497.964 843.023 497.964 832.191C497.964 821.36 490.907 812.58 482.202 812.58C473.498 812.58 466.441 821.36 466.441 832.191C466.441 843.023 473.498 851.803 482.202 851.803Z" fill="#3F3D56"/>
<path d="M1012.08 877.328L1080.09 899.232L1121.8 1001.17L1051.28 1004.61L1012.08 877.328Z" fill="#E6E6E6"/>
<path d="M855.121 730.375L892.549 776.971L987.607 1032.7L970.106 1051.52L855.121 730.375Z" fill="#CCCCCC"/>
<path d="M773.741 772.614L776.677 838.392L866.401 1097.09L889.34 1093.41L773.741 772.614Z" fill="#CCCCCC"/>
<path d="M771.292 1038.35L734.667 1112.93L761.666 1222.27L814.261 1163.73L771.292 1038.35Z" fill="#E6E6E6"/>
<path d="M1094.82 1084.18C1075.8 1084.18 1054.96 1083.28 1032.29 1081.49C915.045 1072.23 763.173 1040.02 604.653 990.801C446.134 941.582 299.905 881.23 192.905 820.868C140.782 791.462 100.778 763.628 74.0057 738.136C45.6604 711.149 33.2617 687.626 37.1527 668.222C44.7342 630.42 111.865 622.15 166.845 621.869L166.864 627.366C91.3611 627.752 46.8181 642.735 41.44 669.554C34.5892 703.711 90.4615 757.037 194.73 815.861C301.495 876.09 447.455 936.326 605.723 985.468C763.992 1034.61 915.583 1066.76 1032.57 1076.01C1146.82 1085.04 1216.28 1070.62 1223.13 1036.47C1228.82 1008.11 1191.33 966.327 1117.56 918.824L1119.59 913.942C1173.19 948.459 1235.41 997.964 1227.42 1037.8C1223.53 1057.2 1203.7 1070.72 1168.49 1077.97C1148.42 1082.1 1123.76 1084.18 1094.82 1084.18Z" fill="#3F3D56"/>
</g>
<defs>
<clipPath id="clip0_2_79">
<rect width="1329" height="1514" fill="white"/>
</clipPath>
</defs>
</svg>
