<svg width="1992" height="1253" viewBox="0 0 1992 1253" fill="none" xmlns="http://www.w3.org/2000/svg">
<g clip-path="url(#clip0_1_2)">
<path d="M1210.68 702.476C1214.08 702.476 1217.34 703.724 1219.74 705.945C1222.15 708.166 1223.5 711.178 1223.5 714.319V828.886H1469.25C1472.65 828.886 1475.9 830.134 1478.31 832.355C1480.71 834.576 1482.06 837.588 1482.06 840.729C1482.06 843.87 1480.71 846.882 1478.31 849.103C1475.9 851.324 1472.65 852.572 1469.25 852.572H1223.5V1248.77H1197.87V714.319C1197.87 711.178 1199.22 708.166 1201.62 705.945C1204.03 703.724 1207.29 702.476 1210.68 702.476Z" fill="#E6E6E6"/>
<path d="M526.786 1246.08L480.589 1247.26C473.572 1247.59 466.63 1245.8 460.823 1242.14C455.806 1238.69 453.505 1234.03 454.513 1229.34L463.604 1187.11C465.317 1179.14 475.879 1173.12 488.715 1172.79L514.227 1172.14C527.063 1171.81 537.968 1177.29 540.155 1185.16L551.753 1226.86C553.04 1231.49 551.02 1236.26 546.217 1239.96C540.637 1243.91 533.813 1246.06 526.786 1246.08Z" fill="#3F3D56"/>
<path d="M807.783 1244.88L761.586 1246.05C754.569 1246.39 747.626 1244.59 741.819 1240.93C736.802 1237.48 734.501 1232.82 735.51 1228.14L744.6 1185.9C746.314 1177.94 756.875 1171.91 769.711 1171.59L795.224 1170.94C808.06 1170.61 818.965 1176.08 821.151 1183.95L832.749 1225.65C834.036 1230.28 832.017 1235.05 827.214 1238.75C821.634 1242.7 814.809 1244.85 807.783 1244.88Z" fill="#3F3D56"/>
<path d="M366.372 886.347C364.261 885.506 362.525 884.025 361.449 882.148C360.373 880.27 360.023 878.11 360.456 876.023C360.89 873.937 362.08 872.05 363.832 870.674C365.583 869.299 367.79 868.517 370.087 868.459L895.291 855.053C896.616 855.019 897.934 855.226 899.171 855.663C900.409 856.1 901.541 856.758 902.503 857.599C903.465 858.441 904.239 859.449 904.78 860.567C905.32 861.685 905.618 862.89 905.654 864.114C905.725 866.585 904.732 868.982 902.894 870.778C901.056 872.574 898.523 873.622 895.849 873.693L370.644 887.098C369.178 887.14 367.72 886.883 366.372 886.347Z" fill="#3F3D56"/>
<path d="M560.2 725.626L410.072 729.458L424.068 1198L574.196 1194.17L560.2 725.626Z" fill="#E6E6E6"/>
<path d="M564.008 717.208L535.149 789.878L535.174 1120.96L570.339 1130.28L564.008 717.208Z" fill="#CCCCCC"/>
<path d="M484.353 603.177C456.266 603.914 434.837 648.846 435.352 666.379L436.3 698.122L538 695.526L537.052 663.783C536.519 646.25 512.441 602.48 484.353 603.177Z" fill="#3F3D56"/>
<path d="M412.019 923.494C406.772 923.623 401.683 921.822 397.87 918.486C394.057 915.151 391.831 910.554 391.68 905.704L390.137 854.045C389.992 849.193 391.938 844.486 395.548 840.96C399.157 837.434 404.134 835.378 409.383 835.244C414.632 835.11 419.724 836.909 423.538 840.245C427.353 843.582 429.577 848.182 429.722 853.035L431.265 904.693C431.404 909.544 429.456 914.248 425.848 917.772C422.24 921.297 417.266 923.355 412.019 923.494Z" fill="#3F3D56"/>
<path d="M450.116 730.569L449.406 696.429L459.092 696.207L459.802 730.237L468.582 1226.23L458.894 1226.48" fill="#3F3D56"/>
<path d="M577.414 810.405L403.318 814.849C386.69 796.104 385.179 716.245 419.882 701.046L433.491 679.685L538.413 674.951L550.676 697.442C567.938 711.02 576.839 790.381 577.414 810.405Z" fill="#E6E6E6"/>
<path d="M511.887 772.104L467.861 773.228C459.366 773.444 452.143 763.256 451.762 750.519C451.382 737.781 457.986 727.24 466.481 727.023L510.507 725.899C519.003 725.682 526.226 735.871 526.606 748.608C526.987 761.345 520.383 771.887 511.887 772.104Z" fill="#6C63FF"/>
<path d="M426.632 1002.49L335.88 1061.75L320.027 1195.36L425.893 1162.66L426.632 1002.49Z" fill="#E6E6E6"/>
<path d="M850.001 719.888L699.873 723.72L713.87 1192.26L863.998 1188.43L850.001 719.888Z" fill="#E6E6E6"/>
<path d="M703.469 718.773L734.359 790.727L743.628 1121.7L708.736 1131.86L703.469 718.773Z" fill="#CCCCCC"/>
<path d="M925.079 589.803C935.946 589.803 944.756 578.883 944.756 565.412C944.756 551.942 935.946 541.021 925.079 541.021C914.211 541.021 905.401 551.942 905.401 565.412C905.401 578.883 914.211 589.803 925.079 589.803Z" fill="#E6E6E6"/>
<path d="M771.224 597.513C743.138 598.251 721.708 643.182 722.224 660.716L723.172 692.458L824.871 689.862L823.923 658.12C823.391 640.587 799.312 596.817 771.224 597.513Z" fill="#3F3D56"/>
<path d="M800.304 741.255L799.594 707.115L809.279 706.891L809.99 740.924L818.769 1236.92L809.081 1237.17" fill="#3F3D56"/>
<path d="M864.285 804.741L690.19 809.185C687.154 792.225 691.081 713.079 706.754 695.383L720.363 674.022L825.285 669.287L837.547 691.778C868.525 694.112 879.361 771.887 864.285 804.741Z" fill="#E6E6E6"/>
<path d="M798.971 773.569L754.946 774.693C746.45 774.91 739.179 763.122 738.74 748.42C738.301 733.717 744.857 721.576 753.352 721.359L797.378 720.236C805.874 720.019 813.145 731.807 813.584 746.509C814.023 761.211 807.467 773.352 798.971 773.569Z" fill="#6C63FF"/>
<path d="M857.419 968.242L945.151 1031.26L954.389 1165.41L850.251 1128.27L857.419 968.242Z" fill="#E6E6E6"/>
<path d="M832.918 346.936C738.781 346.936 630.594 250.37 534.874 296.251C245.062 435.166 284.957 202.713 201.696 116.262L204.43 111.194C267.462 333.45 324.494 687.607 536.133 290.356C589.148 190.845 763.145 344.661 865.564 340.123L865.742 346.215C854.926 346.698 843.984 346.938 832.918 346.936Z" fill="#F2F2F2"/>
<path d="M1058.86 360.601C983.82 413.14 834.505 396.542 788.168 486.538C647.874 759.024 527.849 551.456 405.011 529.009L403.88 523.443C526.849 532.871 658.75 518.243 785.321 481.137C899.705 447.607 1001.76 397.729 1080.44 336.95L1084.56 341.707C1076.25 348.128 1067.69 354.426 1058.86 360.601Z" fill="#F2F2F2"/>
<path d="M242.565 348.638C253.433 348.638 262.242 337.717 262.242 324.247C262.242 310.776 253.433 299.855 242.565 299.855C231.698 299.855 222.888 310.776 222.888 324.247C222.888 337.717 231.698 348.638 242.565 348.638Z" fill="#E6E6E6"/>
<path d="M852.867 150.537C863.735 150.537 872.545 139.617 872.545 126.146C872.545 112.675 863.735 101.755 852.867 101.755C842 101.755 833.19 112.675 833.19 126.146C833.19 139.617 842 150.537 852.867 150.537Z" fill="#E6E6E6"/>
<path d="M422.717 447.081C413.721 452.622 404.514 439.434 413.683 434.139C422.679 428.599 431.886 441.786 422.717 447.081Z" fill="#E6E6E6"/>
<path d="M755.821 14.2744C746.825 19.8152 737.618 6.62763 746.787 1.33288C755.782 -4.20758 764.99 8.97996 755.821 14.2744Z" fill="#E6E6E6"/>
<path d="M952.139 270.883L946.416 269.722L947.669 264.43L943.853 263.657L942.598 268.949L936.874 267.791L936.038 271.318L941.761 272.479L940.508 277.769L944.324 278.542L945.579 273.249L951.303 274.41L952.139 270.883Z" fill="#E6E6E6"/>
<path d="M427.526 93.5367C441.294 93.5367 452.456 83.2191 452.456 70.4917C452.456 57.7644 441.294 47.4468 427.526 47.4468C413.757 47.4468 402.596 57.7644 402.596 70.4917C402.596 83.2191 413.757 93.5367 427.526 93.5367Z" fill="#FF6584"/>
<path d="M609.873 41.3222C581.787 42.0596 560.357 86.9911 560.873 104.525L561.821 136.267L663.52 133.671L662.572 101.929C662.039 84.3955 637.961 40.6257 609.873 41.3222Z" fill="#3F3D56"/>
<path d="M670.43 1243.32L624.233 1244.49C617.216 1244.83 610.273 1243.03 604.466 1239.37C599.45 1235.92 597.148 1231.26 598.157 1226.58L607.248 1184.34C608.961 1176.38 619.523 1170.35 632.359 1170.03L657.871 1169.38C670.707 1169.05 681.612 1174.52 683.799 1182.39L695.397 1224.09C696.684 1228.72 694.664 1233.49 689.861 1237.19C684.281 1241.14 677.457 1243.29 670.43 1243.32Z" fill="#3F3D56"/>
<path d="M691.031 243.397L540.903 247.229L569.195 1194.34L719.323 1190.51L691.031 243.397Z" fill="#E6E6E6"/>
<path d="M630.959 701.855L630.249 667.715L639.934 667.493L640.645 701.523L649.424 1197.52L639.736 1197.77" fill="#3F3D56"/>
<path d="M720.588 330.077L517.171 335.27C513.625 315.452 518.213 222.977 536.525 202.301L541.543 177.62L681.998 174.035L689.347 198.089C709.516 213.954 719.916 306.681 720.588 330.077Z" fill="#E6E6E6"/>
<path d="M686.438 176.947L541.497 180.647C536.147 180.783 531.729 178.187 531.63 174.847C531.617 174.366 531.693 173.887 531.855 173.43L554.369 109.316C555.333 106.57 559.17 104.554 563.649 104.44L659.771 101.986C664.25 101.872 668.202 103.689 669.328 106.381L695.635 169.249C696.98 172.465 693.873 175.811 688.694 176.723C687.95 176.853 687.195 176.928 686.438 176.947Z" fill="#E6E6E6"/>
<path d="M555.795 697.5C554.486 696.982 553.25 696.32 552.112 695.53C550.482 694.472 549.134 693.084 548.174 691.471C547.213 689.858 546.665 688.063 546.57 686.224L541.304 509.92C541.087 502.622 548.817 496.482 558.536 496.234L688.291 492.921C698.011 492.671 706.094 498.41 706.313 505.708L711.58 682.013C711.595 683.854 711.155 685.674 710.292 687.333C709.429 688.993 708.167 690.447 706.602 691.586C703.136 694.196 698.817 695.645 694.346 695.699L564.593 699.01C561.577 699.103 558.574 698.588 555.795 697.5Z" fill="#3F3D56"/>
<path d="M638.843 165.601L594.818 166.725C586.322 166.941 579.138 158.069 578.806 146.949C578.474 135.828 585.117 126.603 593.613 126.386L637.638 125.262C646.134 125.045 653.318 133.918 653.65 145.038C653.982 156.158 647.339 165.384 638.843 165.601Z" fill="#6C63FF"/>
<path d="M1679.52 1211.27H1628.27V867.015C1671.14 864.173 1703.35 852.039 1703.35 837.499C1703.35 820.85 1661.11 807.354 1609.01 807.354C1556.91 807.354 1514.67 820.85 1514.67 837.499C1514.67 852.179 1547.51 864.402 1591 867.09V1211.27H1539.75C1534.81 1211.27 1530.07 1213.09 1526.57 1216.32C1523.08 1219.55 1521.12 1223.93 1521.12 1228.5C1521.12 1233.07 1523.08 1237.45 1526.57 1240.68C1530.07 1243.91 1534.81 1245.73 1539.75 1245.73H1679.52C1684.46 1245.73 1689.2 1243.91 1692.69 1240.68C1696.19 1237.45 1698.15 1233.07 1698.15 1228.5C1698.15 1223.93 1696.19 1219.55 1692.69 1216.32C1689.2 1213.09 1684.46 1211.27 1679.52 1211.27Z" fill="#E6E6E6"/>
<path d="M1576.65 1036.5L1559.81 1053.46L1481.05 1001.51L1505.89 976.482L1576.65 1036.5Z" fill="#A0616A"/>
<path d="M1533.6 1081.26C1533.77 1085.05 1534.75 1088.77 1536.48 1092.21C1538.21 1095.65 1540.67 1098.74 1543.7 1101.3L1544.44 1101.94L1566.52 1079.7L1598.71 1047.26L1574.95 1027.09L1570.66 1031.43L1570.21 1031.87L1548.82 1041.22L1544.29 1043.21L1543.51 1043.55L1541.81 1060.48V1060.5C1539.02 1063.28 1536.86 1066.55 1535.45 1070.12C1534.04 1073.68 1533.41 1077.47 1533.6 1081.26Z" fill="#2F2E41"/>
<path d="M1663.86 1205.67L1640.04 1212.36L1600.79 1130.6L1635.95 1120.73L1663.86 1205.67Z" fill="#A0616A"/>
<path d="M1599.83 1245.97L1600.13 1246.88L1676.94 1225.31L1667.56 1196.78L1661.5 1198.48L1660.86 1198.66L1632.3 1196.23L1631.46 1196.17L1620.65 1209.95C1612.73 1212.18 1606.08 1217.22 1602.17 1223.98C1598.27 1230.73 1597.43 1238.64 1599.83 1245.97Z" fill="#2F2E41"/>
<path d="M1467.42 777.605C1467.42 777.605 1315.32 913.351 1411.48 955.369H1441.2C1447.66 935.958 1457.58 917.685 1470.57 901.306C1473.38 897.909 1483.9 898.599 1486.82 895.289C1504.66 875.077 1523.99 857.718 1537.35 858.407L1534.15 952.199L1528.98 985.655C1526.27 1002.95 1602.89 1153.96 1602.89 1153.96L1651.05 1136.46C1651.05 1136.46 1600.87 1012.08 1600.28 994.153L1640.49 796.997L1467.42 777.605Z" fill="#2F2E41"/>
<path d="M1454.74 784.3C1455.51 785.322 1456.53 786.171 1457.7 786.785C1459.64 787.798 1461.74 788.518 1463.92 788.92C1498.17 796.105 1610.04 811 1639.08 803.895C1642.64 803.035 1644.97 801.824 1645.73 800.231C1648.16 795.197 1647.85 773.928 1646.42 748.247C1646.16 743.436 1640.42 738.227 1640.08 733.192C1639.83 729.416 1644.99 725.864 1644.71 722.024C1642.82 696.056 1640.37 669.595 1638.73 652.867C1637.7 642.113 1636.99 635.39 1636.99 635.39L1654.66 532.427L1653.83 531.168L1652.9 530.738L1595.94 504.674L1592.84 497.346C1591.94 495.236 1590.37 493.423 1588.35 492.143C1586.33 490.862 1583.93 490.172 1581.48 490.161L1543.96 490.018C1542.01 490.008 1540.09 490.428 1538.36 491.242C1536.62 492.057 1535.12 493.243 1533.98 494.701L1523.81 507.717L1456.6 547.545L1456.86 548.278L1488.4 636.999L1488.55 643.913V643.929L1489.72 699.529L1486.47 707.065L1490.14 719.428C1490.14 719.428 1488.45 733.877 1479.4 744.615C1471.2 754.365 1460.75 764.529 1456.03 772.781V772.797C1453.41 777.354 1452.53 781.305 1454.74 784.3Z" fill="#6C63FF"/>
<path d="M1404.17 947.305L1412.3 956.801C1412.3 956.801 1487.07 1005.15 1489.64 1009.67L1501.46 1020.01L1530.05 991.758L1515.18 974.531C1503.28 960.745 1487.91 949.865 1470.4 942.844L1447.62 924.156L1404.17 947.305Z" fill="#2F2E41"/>
<path d="M1673.5 816.37L1659.88 694.543L1656.29 644.403L1694.4 638.034C1694.4 638.034 1692.89 673.885 1697.88 694.113C1702.81 714.073 1698.53 813.695 1698.23 816.359C1701.03 818.673 1703 821.717 1703.89 825.09C1704.77 828.462 1704.53 832.004 1703.19 835.247C1701.85 838.489 1699.48 841.28 1696.39 843.249C1693.3 845.218 1689.63 846.273 1685.88 846.275C1682.12 846.277 1678.46 845.225 1675.36 843.258C1672.27 841.292 1669.9 838.503 1668.55 835.262C1667.21 832.021 1666.97 828.479 1667.85 825.106C1668.73 821.732 1670.7 818.686 1673.5 816.37Z" fill="#A0616A"/>
<path d="M1628.12 631.87L1638.73 652.867L1642.44 660.179L1652.42 708.483L1657.4 713.374L1661.69 729.162L1663.7 728.779L1700.07 721.817L1710.67 719.794C1713.06 716.115 1714 711.786 1713.33 707.539C1712.67 703.292 1710.43 699.388 1707.01 696.487C1706.29 695.881 1705.69 695.292 1705.7 694.734C1706.31 661.135 1704.08 599.784 1684.01 574.533C1677.63 566.52 1673.8 558.538 1668.24 552.962C1668.22 552.946 1668.22 552.93 1668.2 552.93L1654.66 532.427L1653.83 531.168L1652.9 530.738L1628.12 631.87Z" fill="#6C63FF"/>
<path d="M1565.65 481.388C1593.22 481.388 1615.57 460.727 1615.57 435.242C1615.57 409.756 1593.22 389.096 1565.65 389.096C1538.08 389.096 1515.73 409.756 1515.73 435.242C1515.73 460.727 1538.08 481.388 1565.65 481.388Z" fill="#A0616A"/>
<path d="M1624.93 425.313C1626.39 417.558 1627.53 407.505 1623.34 398.568C1619.8 391.047 1610.95 383.996 1601.11 384.947C1601.58 383.249 1601.52 381.465 1600.96 379.793C1600.4 378.121 1599.34 376.626 1597.91 375.475C1594.71 373.149 1590.97 371.526 1586.99 370.729C1577.74 368.215 1568.16 365.61 1558.27 365.561C1547.16 365.506 1537.32 369.022 1531.29 375.222L1531.14 375.422L1529.34 379.413C1529.09 379.949 1528.73 380.43 1528.27 380.823C1527.81 381.216 1527.26 381.511 1526.66 381.69C1526.06 381.872 1525.43 381.93 1524.8 381.86C1524.18 381.789 1523.57 381.591 1523.04 381.28C1522.46 380.948 1521.79 380.762 1521.1 380.741C1520.41 380.721 1519.73 380.866 1519.13 381.163C1518.52 381.46 1518.01 381.898 1517.64 382.435C1517.27 382.971 1517.06 383.587 1517.03 384.221L1516.93 385.924L1514.34 384.97C1513.69 384.727 1512.99 384.649 1512.29 384.744C1511.6 384.839 1510.95 385.103 1510.4 385.509C1509.85 385.915 1509.44 386.449 1509.19 387.055C1508.94 387.66 1508.87 388.316 1508.99 388.955L1509.33 390.981C1508.78 390.887 1508.2 390.899 1507.65 391.014C1507.1 391.129 1506.58 391.345 1506.12 391.651C1505.46 392.098 1504.97 392.727 1504.73 393.446C1504.48 394.166 1504.49 394.94 1504.75 395.656C1506.76 400.956 1510.19 405.698 1514.72 409.436C1516.76 411.136 1519.04 412.569 1521.5 413.693C1522.01 413.932 1522.54 414.158 1523.09 414.371C1542.99 422.256 1564.27 426.713 1585.9 427.523C1583.86 431.129 1582.54 435.048 1582 439.09C1581.71 441.384 1582.1 443.708 1583.13 445.812C1584.16 447.915 1585.8 449.717 1587.86 451.022C1588.75 451.495 1589.69 451.892 1590.66 452.21C1591.59 452.527 1592.49 452.911 1593.35 453.361C1594.62 454.067 1595.65 455.069 1596.36 456.266C1597.07 457.462 1597.43 458.811 1597.39 460.175C1597.36 461.539 1596.94 462.87 1596.17 464.034C1595.39 465.198 1594.31 466.154 1593.01 466.804C1593.01 466.804 1596.72 470.996 1597.32 470.925C1599.68 470.429 1601.82 469.259 1603.43 467.581C1614.24 457.877 1621.48 443.665 1624.93 425.313Z" fill="#2F2E41"/>
<path d="M1843.48 1138.63L1845.65 1093.54C1868.27 1082.36 1893.5 1076.46 1919.14 1076.34C1883.85 1103.01 1888.26 1154.44 1864.33 1190.31C1856.77 1201.44 1846.6 1210.86 1834.57 1217.87C1822.54 1224.88 1808.96 1229.3 1794.83 1230.79L1765.29 1247.51C1761.24 1226.62 1762.13 1205.17 1767.91 1184.64C1773.69 1164.1 1784.21 1144.96 1798.76 1128.55C1807.02 1119.42 1816.5 1111.28 1826.96 1104.34C1834.03 1121.58 1843.48 1138.63 1843.48 1138.63Z" fill="#F2F2F2"/>
<path d="M1992 1249.66C1992 1250.1 1991.91 1250.53 1991.73 1250.94C1991.55 1251.34 1991.28 1251.71 1990.94 1252.02C1990.61 1252.33 1990.21 1252.58 1989.77 1252.75C1989.33 1252.92 1988.86 1253 1988.38 1253H3.61807C2.6585 1253 1.73822 1252.65 1.0597 1252.02C0.381183 1251.39 0 1250.54 0 1249.66C0 1248.77 0.381183 1247.92 1.0597 1247.29C1.73822 1246.66 2.6585 1246.31 3.61807 1246.31H1988.38C1988.86 1246.31 1989.33 1246.4 1989.77 1246.56C1990.21 1246.73 1990.61 1246.98 1990.94 1247.29C1991.28 1247.6 1991.55 1247.97 1991.73 1248.37C1991.91 1248.78 1992 1249.22 1992 1249.66Z" fill="#CCCCCC"/>
<path d="M853.72 912.05C848.472 912.179 843.384 910.378 839.571 907.042C835.758 903.707 833.532 899.11 833.381 894.26L831.838 842.601C831.699 837.752 833.649 833.052 837.258 829.531C840.866 826.01 845.839 823.957 851.084 823.823C856.329 823.689 861.417 825.485 865.23 828.817C869.044 832.148 871.271 836.743 871.422 841.591L872.965 893.249C873.104 898.1 871.156 902.804 867.548 906.328C863.94 909.853 858.967 911.911 853.72 912.05Z" fill="#3F3D56"/>
<path d="M1726.91 1100.85C1696.83 1100.85 1663.87 1099.8 1628.01 1097.7C1442.56 1086.81 1202.34 1048.97 951.61 991.131C700.879 933.296 469.587 862.379 300.344 791.449C217.901 756.896 154.626 724.189 112.28 694.235C67.4456 662.523 47.8345 634.882 53.989 612.082C65.9807 567.662 172.162 557.944 259.125 557.614L259.155 564.074C139.731 564.527 69.2768 582.132 60.7702 613.646C49.9342 653.783 138.308 716.444 303.23 785.566C472.101 856.339 702.967 927.12 953.302 984.865C1203.64 1042.61 1443.41 1080.39 1628.45 1091.25C1809.17 1101.86 1919.03 1084.93 1929.87 1044.79C1938.86 1011.46 1879.56 962.373 1762.87 906.554L1766.08 900.818C1850.87 941.377 1949.28 999.548 1936.65 1046.35C1930.49 1069.16 1899.13 1085.04 1843.44 1093.56C1811.69 1098.42 1772.69 1100.85 1726.91 1100.85Z" fill="#CCCCCC"/>
<path d="M130.583 1058.53C106.716 1058.53 91.1991 1053.05 84.3314 1042.15C70.7883 1020.66 93.4705 982.954 151.746 930.075L156.642 934.684C102.509 983.806 78.9732 1020.82 90.3688 1038.9C97.5799 1050.34 119.04 1054.44 152.444 1050.75C185.603 1047.1 229.548 1036.19 283.057 1018.34C393.217 981.587 531.423 919.596 672.218 843.784C813.008 767.974 939.517 687.422 1028.45 616.97C1045.53 603.435 1061.03 590.415 1074.52 578.273C1092.23 562.723 1108.57 545.89 1123.38 527.935C1143.33 502.899 1150.06 483.619 1142.85 472.178C1130.81 453.068 1080.22 454.865 1000.39 477.244L998.364 471.062C1084.01 447.055 1134.65 446.335 1148.89 468.927C1157.73 482.963 1151.04 504.105 1129.01 531.767C1113.97 550.006 1097.38 567.105 1079.39 582.901C1065.8 595.139 1050.19 608.251 1032.99 621.875C943.754 692.574 816.878 773.366 675.735 849.365C534.588 925.369 395.974 987.536 285.43 1024.41C231.423 1042.43 186.958 1053.45 153.272 1057.17C145.744 1058.04 138.168 1058.49 130.583 1058.53Z" fill="#CCCCCC"/>
<path d="M1406.03 793.312C1388.76 792.994 1295.99 790.533 1280.78 791.138C1279.91 788.353 1251.08 822.516 1250.37 822.728C1249.91 823.184 1249.57 823.738 1249.38 824.343C1249.19 824.947 1249.17 825.584 1249.31 826.199C1249.45 826.814 1249.74 827.389 1250.18 827.875C1250.61 828.361 1251.16 828.743 1251.78 828.989C1253.48 829.941 1403.04 827.384 1404.85 827.717C1405.63 827.706 1406.4 827.49 1407.05 827.094C1407.71 826.699 1408.23 826.14 1408.56 825.481L1409.56 823.412C1409.66 819.871 1410.92 801.776 1409.79 798.682C1410.07 798.101 1410.18 797.466 1410.13 796.834C1410.07 796.201 1409.85 795.592 1409.48 795.059C1409.1 794.527 1408.59 794.088 1407.99 793.783C1407.39 793.478 1406.71 793.316 1406.03 793.312Z" fill="#E6E6E6"/>
<path opacity="0.17" d="M1409.56 823.408C1408.68 825.358 1407.56 827.808 1404.85 827.718L1253.36 829.289C1252.65 829.282 1251.94 829.104 1251.32 828.774C1250.7 828.443 1250.18 827.97 1249.82 827.401C1249.45 826.831 1249.25 826.185 1249.23 825.523C1249.21 824.86 1249.38 824.205 1249.72 823.62L1409.56 823.408Z" fill="black"/>
<path d="M1281.48 790.719C1279.85 788.112 1239.35 602.871 1235.97 601.322L1208.32 570.055L1205.85 568.337C1202.41 566.592 1194.17 567.772 1194.91 572.624C1201.41 601.413 1243.19 765.381 1244.11 790.944L1249.14 823.511C1249.23 824.065 1249.44 824.595 1249.77 825.068C1250.09 825.541 1250.52 825.946 1251.02 826.256C1251.53 826.567 1252.1 826.776 1252.7 826.87C1253.29 826.965 1253.91 826.942 1254.49 826.805C1255.93 826.661 1257.31 826.173 1258.49 825.388C1259.66 824.603 1260.6 823.548 1261.2 822.328C1261.57 821.179 1283.38 791.386 1281.48 790.719Z" fill="#E6E6E6"/>
<path opacity="0.17" d="M1208.32 570.056L1261.2 822.335C1259.43 826.473 1251.16 829.371 1249.23 823.943C1249.2 823.936 1194.97 572.779 1194.92 572.629C1194.34 566.584 1205.15 566.393 1208.32 570.056Z" fill="black"/>
<path d="M1209.91 580.372L1236.77 614.979L1266.92 747.33L1252.9 758.63L1209.91 580.372Z" fill="#6C63FF"/>
<path d="M1388.69 811.157L1396.12 811.437C1396.24 809.426 1396.6 807.432 1397.19 805.494C1398.31 800.585 1399.31 794.75 1394.68 794.771C1391.53 794.491 1390.46 798.173 1389.9 802.178C1389.76 805.196 1389.35 808.199 1388.69 811.157Z" fill="#2F2E41"/>
<path d="M1346.06 801.92L1351.07 802.092L1353.49 802.178C1353.45 799.724 1354.68 794.663 1351.68 793.414C1351.2 793.224 1350.68 793.129 1350.16 793.135C1347.34 792.984 1346.51 794.965 1346.25 797.247C1346.09 798.625 1346.16 800.09 1346.11 801.231C1346.11 801.468 1346.09 801.705 1346.06 801.92Z" fill="#2F2E41"/>
<path d="M1331.22 801.36L1336.26 801.554L1338.66 801.64C1338.61 798.819 1340.22 792.661 1335.32 792.575C1330.81 792.338 1331.39 797.656 1331.27 800.671C1331.27 800.908 1331.25 801.145 1331.22 801.36Z" fill="#2F2E41"/>
<path d="M1316.39 800.822L1321.39 800.994L1323.82 801.08C1323.77 798.281 1325.38 792.122 1320.49 792.036C1315.97 791.778 1316.55 797.096 1316.43 800.133C1316.43 800.369 1316.41 800.606 1316.39 800.822Z" fill="#2F2E41"/>
<path d="M1301.55 800.262L1306.58 800.456L1308.98 800.542C1308.93 797.721 1310.54 791.584 1305.65 791.477C1301.13 791.24 1301.71 796.558 1301.59 799.573C1301.59 799.81 1301.57 800.047 1301.55 800.262Z" fill="#2F2E41"/>
<path d="M1286.71 799.724L1291.72 799.896L1294.14 799.982C1294.09 797.398 1295.45 791.993 1291.86 791.067H1291.83C1291.5 790.976 1291.16 790.933 1290.81 790.938C1290.39 790.903 1289.96 790.94 1289.55 791.046H1289.53C1286.41 791.8 1286.85 796.321 1286.76 799.035C1286.76 799.271 1286.73 799.508 1286.71 799.724Z" fill="#2F2E41"/>
<path d="M1373.71 798.259L1381.14 798.539C1381.14 798.281 1381.14 798.001 1381.17 797.678C1381.35 796.04 1381.38 794.39 1381.26 792.747C1381 790.938 1380.17 789.517 1377.81 789.474C1375.41 789.345 1374.46 790.766 1374.09 792.596C1374 792.908 1373.94 793.224 1373.9 793.544V793.565C1373.71 795.245 1373.83 797.054 1373.71 798.259Z" fill="#2F2E41"/>
<path d="M1358.87 797.699L1366.31 797.979C1366.46 796.131 1366.51 794.277 1366.45 792.424C1366.24 790.529 1365.42 788.979 1362.97 788.936C1360.51 788.785 1359.55 790.335 1359.18 792.252C1358.83 794.104 1359.01 796.321 1358.87 797.699Z" fill="#2F2E41"/>
<path d="M1344.04 797.161L1346.25 797.247L1351.47 797.441C1351.44 796.407 1351.65 794.9 1351.68 793.414C1351.7 792.969 1351.68 792.523 1351.63 792.079C1351.44 790.077 1350.68 788.419 1348.14 788.376C1345.55 788.247 1344.64 789.905 1344.32 791.929C1343.99 793.737 1344.18 795.826 1344.04 797.161Z" fill="#2F2E41"/>
<path d="M1373.85 810.619L1381.28 810.878C1381.26 808.078 1382.84 801.92 1377.95 801.834C1373.06 801.554 1374.13 807.798 1373.85 810.619Z" fill="#2F2E41"/>
<path d="M1359.01 810.059L1366.45 810.339C1366.42 807.518 1368.01 801.36 1363.11 801.274C1358.22 801.015 1359.29 807.26 1359.01 810.059Z" fill="#2F2E41"/>
<path d="M1344.18 809.521L1351.61 809.779C1351.58 807.777 1352.4 804.073 1351.07 802.092C1350.78 801.653 1350.37 801.295 1349.88 801.057C1349.38 800.818 1348.83 800.707 1348.28 800.735C1347.51 800.661 1346.75 800.836 1346.11 801.231C1343.73 802.673 1344.41 807.238 1344.18 809.521Z" fill="#2F2E41"/>
<path d="M1329.34 808.961L1336.77 809.241C1336.75 807.238 1337.54 803.556 1336.26 801.554C1335.97 801.108 1335.55 800.745 1335.05 800.502C1334.56 800.259 1334 800.146 1333.44 800.176C1332.67 800.098 1331.91 800.274 1331.27 800.671C1328.9 802.157 1329.57 806.7 1329.34 808.961Z" fill="#2F2E41"/>
<path d="M1314.5 808.423L1321.93 808.681C1321.91 806.679 1322.72 802.975 1321.39 800.994C1321.1 800.555 1320.69 800.198 1320.2 799.959C1319.71 799.72 1319.15 799.609 1318.6 799.637C1317.84 799.563 1317.07 799.738 1316.43 800.133C1314.06 801.575 1314.73 806.14 1314.5 808.423Z" fill="#2F2E41"/>
<path d="M1299.66 807.863L1307.09 808.143C1307.07 806.14 1307.86 802.458 1306.58 800.456C1306.29 800.008 1305.88 799.643 1305.38 799.4C1304.88 799.157 1304.32 799.045 1303.76 799.078C1303 799 1302.23 799.176 1301.59 799.573C1299.22 801.059 1299.89 805.602 1299.66 807.863Z" fill="#2F2E41"/>
<path d="M1284.82 807.325L1292.25 807.583C1292.23 805.58 1293.02 801.898 1291.72 799.896C1291.43 799.455 1291.02 799.096 1290.53 798.857C1290.03 798.618 1289.48 798.508 1288.92 798.539C1288.16 798.465 1287.39 798.64 1286.76 799.035C1284.38 800.499 1285.06 805.042 1284.82 807.325Z" fill="#2F2E41"/>
<path d="M1368.74 787.42L1425.38 676.697L1446.79 630.511L1413.14 612.797C1413.14 612.797 1401.67 647.075 1389.69 664.62C1377.87 681.933 1346.09 777.207 1345.42 779.813C1341.95 781.135 1338.99 783.4 1336.94 786.309C1334.9 789.218 1333.85 792.633 1333.95 796.102C1334.05 799.572 1335.28 802.932 1337.49 805.739C1339.7 808.546 1342.77 810.667 1346.31 811.822C1349.86 812.977 1353.69 813.111 1357.32 812.207C1360.94 811.302 1364.18 809.402 1366.61 806.757C1369.05 804.112 1370.55 800.847 1370.93 797.394C1371.31 793.941 1370.55 790.463 1368.74 787.42Z" fill="#A0616A"/>
<path d="M1368.4 684.908L1411.23 708.794L1420.94 695.222L1427.41 692.138L1454.19 649.638L1477.86 627.344L1509.14 534.927L1468.44 540.571L1468.39 540.587C1461.14 544.142 1454.65 550.496 1445.76 556.097C1417.75 573.744 1393.6 630.927 1382.09 662.81C1381.9 663.333 1381.12 663.698 1380.22 664.054C1375.96 665.74 1372.45 668.736 1370.3 672.535C1368.14 676.334 1367.47 680.705 1368.4 684.908Z" fill="#6C63FF"/>
</g>
<defs>
<clipPath id="clip0_1_2">
<rect width="1992" height="1253" fill="white"/>
</clipPath>
</defs>
</svg>
